<svg width="520" height="520" viewBox="0 0 520 520" fill="none" xmlns="http://www.w3.org/2000/svg">
<path fill-rule="evenodd" clip-rule="evenodd" d="M371.575 0H148.425C96.8143 0 78.0991 5.37373 59.231 15.4645C40.363 25.5552 25.5552 40.363 15.4645 59.231C5.37373 78.0991 0 96.8143 0 148.425V371.575C0 423.186 5.37373 441.901 15.4645 460.769C25.5552 479.637 40.363 494.445 59.231 504.536C78.0991 514.626 96.8143 520 148.425 520H371.575C423.186 520 441.901 514.626 460.769 504.536C479.637 494.445 494.445 479.637 504.536 460.769C514.626 441.901 520 423.186 520 371.575V148.425C520 96.8143 514.626 78.0991 504.536 59.231C494.445 40.363 479.637 25.5552 460.769 15.4645C441.901 5.37373 423.186 0 371.575 0Z" fill="url(#paint0_linear_5_63)"/>
<path d="M332.888 447.427C373.143 447.427 405.777 362.242 405.777 257.16H332.888C332.888 327.586 318.231 389.075 296.444 421.973C274.658 389.075 260 327.586 260 257.16H187.112C187.112 327.586 201.769 389.075 223.556 421.973C234.277 438.162 246.724 447.427 260 447.427H332.888Z" fill="white"/>
<path d="M187.112 66.8932C146.857 66.8932 114.223 152.079 114.223 257.16H187.112C187.112 186.735 201.769 125.246 223.556 92.3475C245.342 125.246 260 186.735 260 257.16H332.888C332.888 186.735 318.231 125.246 296.444 92.3475C285.728 76.1661 273.288 66.9017 260.018 66.8932L259.982 66.8932L187.112 66.8932Z" fill="white"/>
<defs>
<linearGradient id="paint0_linear_5_63" x1="260" y1="0" x2="260" y2="520" gradientUnits="userSpaceOnUse">
<stop stop-color="#FF2A16"/>
<stop offset="1" stop-color="#E22911"/>
</linearGradient>
</defs>
</svg>
